REM DIRINDEX 1\4,1\2\5,1\2\6,1\2\7,1\3\8,1\3\9,1\3\10,1\3\11
REM DIRNAME cjc108,folder01,folder02,folder03,folder04,folder05,folder06,folder07,folder08,folder09,folder10
TITLE ""
FILE "t_k_479-490.mp3" MP3
  TRACK 01 AUDIO
    TITLE "5:cjc108_1441"
    INDEX 01 00:00:00
  TRACK 02 AUDIO
    TITLE "0:"
    INDEX 01 00:01:26
  TRACK 03 AUDIO
    TITLE "6:cjc108_1442"
    INDEX 01 00:01:52
  TRACK 04 AUDIO
    TITLE "0:"
    INDEX 01 00:05:16
  TRACK 05 AUDIO
    TITLE "7:cjc108_1443"
    INDEX 01 00:05:50
  TRACK 06 AUDIO
    TITLE "0:"
    INDEX 01 00:11:25
  TRACK 07 AUDIO
    TITLE "5:cjc108_1444"
    INDEX 01 00:12:26
  TRACK 08 AUDIO
    TITLE "0:"
    INDEX 01 00:13:43
  TRACK 09 AUDIO
    TITLE "6:cjc108_1445"
    INDEX 01 00:13:53
  TRACK 10 AUDIO
    TITLE "0:"
    INDEX 01 00:16:40
  TRACK 11 AUDIO
    TITLE "7:cjc108_1446"
    INDEX 01 00:16:53
  TRACK 12 AUDIO
    TITLE "0:"
    INDEX 01 00:22:58
  TRACK 13 AUDIO
    TITLE "5:cjc108_1447"
    INDEX 01 00:23:42
  TRACK 14 AUDIO
    TITLE "0:"
    INDEX 01 00:24:61
  TRACK 15 AUDIO
    TITLE "6:cjc108_1448"
    INDEX 01 00:24:67
  TRACK 16 AUDIO
    TITLE "0:"
    INDEX 01 00:27:34
  TRACK 17 AUDIO
    TITLE "7:cjc108_1449"
    INDEX 01 00:27:49
  TRACK 18 AUDIO
    TITLE "0:"
    INDEX 01 00:31:53
  TRACK 19 AUDIO
    TITLE "5:cjc108_1450"
    INDEX 01 00:32:41
  TRACK 20 AUDIO
    TITLE "0:"
    INDEX 01 00:33:69
  TRACK 21 AUDIO
    TITLE "6:cjc108_1451"
    INDEX 01 00:34:02
  TRACK 22 AUDIO
    TITLE "0:"
    INDEX 01 00:36:40
  TRACK 23 AUDIO
    TITLE "7:cjc108_1452"
    INDEX 01 00:36:56
  TRACK 24 AUDIO
    TITLE "0:"
    INDEX 01 00:41:26
  TRACK 25 AUDIO
    TITLE "5:cjc108_1453"
    INDEX 01 00:42:18
  TRACK 26 AUDIO
    TITLE "0:"
    INDEX 01 00:43:40
  TRACK 27 AUDIO
    TITLE "6:cjc108_1454"
    INDEX 01 00:43:54
  TRACK 28 AUDIO
    TITLE "0:"
    INDEX 01 00:44:69
  TRACK 29 AUDIO
    TITLE "7:cjc108_1455"
    INDEX 01 00:45:12
  TRACK 30 AUDIO
    TITLE "0:"
    INDEX 01 00:54:01
  TRACK 31 AUDIO
    TITLE "5:cjc108_1456"
    INDEX 01 00:54:62
  TRACK 32 AUDIO
    TITLE "0:"
    INDEX 01 00:56:10
  TRACK 33 AUDIO
    TITLE "6:cjc108_1457"
    INDEX 01 00:56:14
  TRACK 34 AUDIO
    TITLE "0:"
    INDEX 01 00:57:50
  TRACK 35 AUDIO
    TITLE "7:cjc108_1458"
    INDEX 01 00:57:66
  TRACK 36 AUDIO
    TITLE "0:"
    INDEX 01 01:02:55
  TRACK 37 AUDIO
    TITLE "5:cjc108_1459"
    INDEX 01 01:03:39
  TRACK 38 AUDIO
    TITLE "0:"
    INDEX 01 01:04:52
  TRACK 39 AUDIO
    TITLE "6:cjc108_1460"
    INDEX 01 01:05:07
  TRACK 40 AUDIO
    TITLE "0:"
    INDEX 01 01:06:42
  TRACK 41 AUDIO
    TITLE "7:cjc108_1461"
    INDEX 01 01:06:59
  TRACK 42 AUDIO
    TITLE "0:"
    INDEX 01 01:12:19
  TRACK 43 AUDIO
    TITLE "5:cjc108_1462"
    INDEX 01 01:13:02
  TRACK 44 AUDIO
    TITLE "0:"
    INDEX 01 01:14:21
  TRACK 45 AUDIO
    TITLE "6:cjc108_1463"
    INDEX 01 01:14:35
  TRACK 46 AUDIO
    TITLE "0:"
    INDEX 01 01:16:63
  TRACK 47 AUDIO
    TITLE "7:cjc108_1464"
    INDEX 01 01:17:06
  TRACK 48 AUDIO
    TITLE "0:"
    INDEX 01 01:21:74
  TRACK 49 AUDIO
    TITLE "5:cjc108_1465"
    INDEX 01 01:22:66
  TRACK 50 AUDIO
    TITLE "0:"
    INDEX 01 01:23:73
  TRACK 51 AUDIO
    TITLE "6:cjc108_1466"
    INDEX 01 01:24:04
  TRACK 52 AUDIO
    TITLE "0:"
    INDEX 01 01:27:14
  TRACK 53 AUDIO
    TITLE "7:cjc108_1467"
    INDEX 01 01:27:30
  TRACK 54 AUDIO
    TITLE "0:"
    INDEX 01 01:32:31
  TRACK 55 AUDIO
    TITLE "5:cjc108_1468"
    INDEX 01 01:33:23
  TRACK 56 AUDIO
    TITLE "0:"
    INDEX 01 01:34:38
  TRACK 57 AUDIO
    TITLE "6:cjc108_1469"
    INDEX 01 01:34:48
  TRACK 58 AUDIO
    TITLE "0:"
    INDEX 01 01:35:67
  TRACK 59 AUDIO
    TITLE "7:cjc108_1470"
    INDEX 01 01:36:03
  TRACK 60 AUDIO
    TITLE "0:"
    INDEX 01 01:39:64
  TRACK 61 AUDIO
    TITLE "5:cjc108_1471"
    INDEX 01 01:40:42
  TRACK 62 AUDIO
    TITLE "0:"
    INDEX 01 01:41:56
  TRACK 63 AUDIO
    TITLE "6:cjc108_1472"
    INDEX 01 01:41:71
  TRACK 64 AUDIO
    TITLE "0:"
    INDEX 01 01:44:34
  TRACK 65 AUDIO
    TITLE "7:cjc108_1473"
    INDEX 01 01:44:46
  TRACK 66 AUDIO
    TITLE "0:"
    INDEX 01 01:49:39
  TRACK 67 AUDIO
    TITLE "5:cjc108_1474"
    INDEX 01 01:50:29
  TRACK 68 AUDIO
    TITLE "0:"
    INDEX 01 01:51:56
  TRACK 69 AUDIO
    TITLE "6:cjc108_1475"
    INDEX 01 01:51:64
  TRACK 70 AUDIO
    TITLE "0:"
    INDEX 01 01:54:37
  TRACK 71 AUDIO
    TITLE "7:cjc108_1476"
    INDEX 01 01:54:52
  TRACK 72 AUDIO
    TITLE "0:"
    INDEX 01 02:00:10
